<svg width="28" height="27" viewBox="0 0 28 27" fill="none" xmlns="http://www.w3.org/2000/svg">
<path d="M13.9204 6.83594C10.2167 6.83594 7.14795 9.85181 7.14795 13.6084C7.14795 17.365 10.1638 20.3809 13.9204 20.3809C17.6771 20.3809 20.6929 17.3121 20.6929 13.6084C20.6929 9.90472 17.6241 6.83594 13.9204 6.83594ZM13.9204 17.947C11.5395 17.947 9.58181 15.9894 9.58181 13.6084C9.58181 11.2275 11.5395 9.2698 13.9204 9.2698C16.3014 9.2698 18.2591 11.2275 18.2591 13.6084C18.2591 15.9894 16.3014 17.947 13.9204 17.947Z" fill="white"/>
<path d="M20.9577 8.21136C21.8052 8.21136 22.4921 7.52439 22.4921 6.67697C22.4921 5.82955 21.8052 5.14258 20.9577 5.14258C20.1103 5.14258 19.4233 5.82955 19.4233 6.67697C19.4233 7.52439 20.1103 8.21136 20.9577 8.21136Z" fill="white"/>
<path d="M24.9258 2.70886C23.5501 1.28029 21.5925 0.539551 19.3703 0.539551H8.47079C3.86761 0.539551 0.798828 3.60833 0.798828 8.21151V19.0581C0.798828 21.3332 1.53957 23.2909 3.02105 24.7194C4.44962 26.0951 6.35438 26.7829 8.5237 26.7829H19.3173C21.5925 26.7829 23.4972 26.0422 24.8729 24.7194C26.3015 23.3438 27.0422 21.3861 27.0422 19.111V8.21151C27.0422 5.98929 26.3015 4.08452 24.9258 2.70886ZM24.7142 19.111C24.7142 20.7512 24.1322 22.0739 23.1798 22.9734C22.2274 23.8729 20.9046 24.3491 19.3173 24.3491H8.5237C6.93639 24.3491 5.61364 23.8729 4.66126 22.9734C3.70888 22.021 3.23269 20.6983 3.23269 19.0581V8.21151C3.23269 6.62421 3.70888 5.30146 4.66126 4.34908C5.56073 3.4496 6.93639 2.97341 8.5237 2.97341H19.4232C21.0105 2.97341 22.3332 3.4496 23.2856 4.40199C24.1851 5.35437 24.7142 6.67712 24.7142 8.21151V19.111Z" fill="white"/>
</svg>
