<svg width="60" height="60" viewBox="0 0 60 60" fill="none" xmlns="http://www.w3.org/2000/svg">
<path fill-rule="evenodd" clip-rule="evenodd" d="M26.8182 0.227273C26.8182 0.353636 26.212 0.454545 25.4545 0.454545C24.697 0.454545 24.0909 0.555455 24.0909 0.681818C24.0909 0.806818 23.6818 0.909091 23.1818 0.909091C22.6818 0.909091 22.2727 1.01136 22.2727 1.13636C22.2727 1.26136 21.8636 1.36364 21.3636 1.36364C20.8636 1.36364 20.4545 1.46591 20.4545 1.59091C20.4545 1.71591 20.25 1.81818 20 1.81818C19.75 1.81818 19.5455 1.92045 19.5455 2.04545C19.5455 2.17045 19.2386 2.27273 18.8636 2.27273C18.4886 2.27273 18.1818 2.375 18.1818 2.5C18.1818 2.625 17.9773 2.72727 17.7273 2.72727C17.4773 2.72727 17.2727 2.82955 17.2727 2.95455C17.2727 3.07955 17.0682 3.18182 16.8182 3.18182C16.5682 3.18182 16.3636 3.28409 16.3636 3.40909C16.3636 3.53409 16.1591 3.63636 15.9091 3.63636C15.6591 3.63636 15.4545 3.73864 15.4545 3.86364C15.4545 3.98864 15.2725 4.09091 15.0502 4.09091C14.8277 4.09091 14.4984 4.29545 14.3182 4.54545C14.138 4.79545 13.8311 5 13.6364 5C13.4416 5 13.1348 5.20455 12.9545 5.45455C12.7743 5.70455 12.495 5.90909 12.3339 5.90909C11.977 5.90909 6.36364 11.4841 6.36364 11.8384C6.36364 11.977 6.05682 12.377 5.68182 12.7273C5.30682 13.0775 5 13.5277 5 13.7275C5 13.9275 4.89773 14.0909 4.77273 14.0909C4.64773 14.0909 4.54545 14.273 4.54545 14.4952C4.54545 14.7177 4.34091 15.047 4.09091 15.2273C3.84091 15.4075 3.63636 15.7368 3.63636 15.9593C3.63636 16.1816 3.53409 16.3636 3.40909 16.3636C3.28409 16.3636 3.18182 16.5682 3.18182 16.8182C3.18182 17.0682 3.07955 17.2727 2.95455 17.2727C2.82955 17.2727 2.72727 17.5795 2.72727 17.9545C2.72727 18.3295 2.625 18.6364 2.5 18.6364C2.375 18.6364 2.27273 18.8409 2.27273 19.0909C2.27273 19.3409 2.17045 19.5455 2.04545 19.5455C1.92045 19.5455 1.81818 19.8523 1.81818 20.2273C1.81818 20.6023 1.71591 20.9091 1.59091 20.9091C1.46591 20.9091 1.36364 21.2159 1.36364 21.5909C1.36364 21.9659 1.26136 22.2727 1.13636 22.2727C1.01136 22.2727 0.909091 22.6818 0.909091 23.1818C0.909091 23.6818 0.806818 24.0909 0.681818 24.0909C0.555455 24.0909 0.454545 24.697 0.454545 25.4545C0.454545 26.212 0.353636 26.8182 0.227273 26.8182C0.0852273 26.8182 0 28.1818 0 30.4545C0 32.7273 0.0852273 34.0909 0.227273 34.0909C0.353636 34.0909 0.454545 34.697 0.454545 35.4545C0.454545 36.212 0.555455 36.8182 0.681818 36.8182C0.806818 36.8182 0.909091 37.2273 0.909091 37.7273C0.909091 38.2273 1.01136 38.6364 1.13636 38.6364C1.26136 38.6364 1.36364 38.9432 1.36364 39.3182C1.36364 39.6932 1.46591 40 1.59091 40C1.71591 40 1.81818 40.3068 1.81818 40.6818C1.81818 41.0568 1.92045 41.3636 2.04545 41.3636C2.17045 41.3636 2.27273 41.5682 2.27273 41.8182C2.27273 42.0682 2.375 42.2727 2.5 42.2727C2.625 42.2727 2.72727 42.4773 2.72727 42.7273C2.72727 42.9773 2.82955 43.1818 2.95455 43.1818C3.07955 43.1818 3.18182 43.3864 3.18182 43.6364C3.18182 43.8864 3.28409 44.0909 3.40909 44.0909C3.53409 44.0909 3.63636 44.2955 3.63636 44.5455C3.63636 44.7955 3.73864 45 3.86364 45C3.98864 45 4.09091 45.182 4.09091 45.4043C4.09091 45.6268 4.29545 45.9561 4.54545 46.1364C4.79545 46.3166 5 46.6234 5 46.8182C5 47.013 5.20455 47.3198 5.45455 47.5C5.70455 47.6802 5.90909 47.9595 5.90909 48.1207C5.90909 48.503 11.497 54.0909 11.8793 54.0909C12.0405 54.0909 12.3198 54.2955 12.5 54.5455C12.6802 54.7955 12.987 55 13.1818 55C13.3766 55 13.6834 55.2045 13.8636 55.4545C14.0439 55.7045 14.3732 55.9091 14.5957 55.9091C14.818 55.9091 15 56.0114 15 56.1364C15 56.2614 15.2045 56.3636 15.4545 56.3636C15.7045 56.3636 15.9091 56.4659 15.9091 56.5909C15.9091 56.7159 16.1136 56.8182 16.3636 56.8182C16.6136 56.8182 16.8182 56.9205 16.8182 57.0455C16.8182 57.1705 17.0227 57.2727 17.2727 57.2727C17.5227 57.2727 17.7273 57.375 17.7273 57.5C17.7273 57.625 17.9318 57.7273 18.1818 57.7273C18.4318 57.7273 18.6364 57.8295 18.6364 57.9545C18.6364 58.0795 18.9432 58.1818 19.3182 58.1818C19.6932 58.1818 20 58.2841 20 58.4091C20 58.5341 20.3068 58.6364 20.6818 58.6364C21.0568 58.6364 21.3636 58.7386 21.3636 58.8636C21.3636 58.9886 21.6705 59.0909 22.0455 59.0909C22.4205 59.0909 22.7273 59.1932 22.7273 59.3182C22.7273 59.4432 23.2386 59.5455 23.8636 59.5455C24.4886 59.5455 25 59.6477 25 59.7727C25 59.9173 26.8182 60 30 60C33.1818 60 35 59.9173 35 59.7727C35 59.6477 35.5114 59.5455 36.1364 59.5455C36.7614 59.5455 37.2727 59.4432 37.2727 59.3182C37.2727 59.1932 37.6818 59.0909 38.1818 59.0909C38.6818 59.0909 39.0909 58.9886 39.0909 58.8636C39.0909 58.7386 39.3977 58.6364 39.7727 58.6364C40.1477 58.6364 40.4545 58.5341 40.4545 58.4091C40.4545 58.2841 40.6591 58.1818 40.9091 58.1818C41.1591 58.1818 41.3636 58.0795 41.3636 57.9545C41.3636 57.8295 41.6705 57.7273 42.0455 57.7273C42.4205 57.7273 42.7273 57.625 42.7273 57.5C42.7273 57.375 42.9318 57.2727 43.1818 57.2727C43.4318 57.2727 43.6364 57.1705 43.6364 57.0455C43.6364 56.9205 43.8184 56.8182 44.0407 56.8182C44.2632 56.8182 44.5925 56.6136 44.7727 56.3636C44.953 56.1136 45.2823 55.9091 45.5048 55.9091C45.727 55.9091 45.9091 55.8068 45.9091 55.6818C45.9091 55.5568 46.0911 55.4545 46.3134 55.4545C46.5359 55.4545 46.8652 55.25 47.0455 55C47.2257 54.75 47.5118 54.5455 47.6816 54.5455C47.8514 54.5455 48.3832 54.1364 48.8636 53.6364C49.3441 53.1364 49.8495 52.7273 49.987 52.7273C50.313 52.7273 52.7273 50.313 52.7273 49.987C52.7273 49.8495 53.1364 49.3441 53.6364 48.8636C54.1364 48.3832 54.5455 47.8514 54.5455 47.6816C54.5455 47.5118 54.75 47.2257 55 47.0455C55.25 46.8652 55.4545 46.5359 55.4545 46.3134C55.4545 46.0911 55.5568 45.9091 55.6818 45.9091C55.8068 45.9091 55.9091 45.727 55.9091 45.5048C55.9091 45.2823 56.1136 44.953 56.3636 44.7727C56.6136 44.5925 56.8182 44.2632 56.8182 44.0407C56.8182 43.8184 56.9205 43.6364 57.0455 43.6364C57.1705 43.6364 57.2727 43.4318 57.2727 43.1818C57.2727 42.9318 57.375 42.7273 57.5 42.7273C57.625 42.7273 57.7273 42.4205 57.7273 42.0455C57.7273 41.6705 57.8295 41.3636 57.9545 41.3636C58.0795 41.3636 58.1818 41.1591 58.1818 40.9091C58.1818 40.6591 58.2841 40.4545 58.4091 40.4545C58.5341 40.4545 58.6364 40.1477 58.6364 39.7727C58.6364 39.3977 58.7386 39.0909 58.8636 39.0909C58.9886 39.0909 59.0909 38.6818 59.0909 38.1818C59.0909 37.6818 59.1932 37.2727 59.3182 37.2727C59.4432 37.2727 59.5455 36.8636 59.5455 36.3636C59.5455 35.8636 59.6477 35.4545 59.7727 35.4545C59.9177 35.4545 60 33.5607 60 30.2273C60 26.8939 59.9177 25 59.7727 25C59.6477 25 59.5455 24.4886 59.5455 23.8636C59.5455 23.2386 59.4432 22.7273 59.3182 22.7273C59.1932 22.7273 59.0909 22.4205 59.0909 22.0455C59.0909 21.6705 58.9886 21.3636 58.8636 21.3636C58.7386 21.3636 58.6364 21.0568 58.6364 20.6818C58.6364 20.3068 58.5341 20 58.4091 20C58.2841 20 58.1818 19.6932 58.1818 19.3182C58.1818 18.9432 58.0795 18.6364 57.9545 18.6364C57.8295 18.6364 57.7273 18.4318 57.7273 18.1818C57.7273 17.9318 57.625 17.7273 57.5 17.7273C57.375 17.7273 57.2727 17.5227 57.2727 17.2727C57.2727 17.0227 57.1705 16.8182 57.0455 16.8182C56.9205 16.8182 56.8182 16.6136 56.8182 16.3636C56.8182 16.1136 56.7159 15.9091 56.5909 15.9091C56.4659 15.9091 56.3636 15.7045 56.3636 15.4545C56.3636 15.2045 56.2614 15 56.1364 15C56.0114 15 55.9091 14.818 55.9091 14.5957C55.9091 14.3732 55.7045 14.0439 55.4545 13.8636C55.2045 13.6834 55 13.395 55 13.2227C55 13.0507 54.6932 12.623 54.3182 12.2727C53.9432 11.9225 53.6364 11.522 53.6364 11.3832C53.6364 11.0534 49.4011 6.81818 49.0714 6.81818C48.9325 6.81818 48.532 6.51136 48.1818 6.13636C47.8316 5.76136 47.4039 5.45455 47.2318 5.45455C47.0595 5.45455 46.7711 5.25 46.5909 5C46.4107 4.75 46.1039 4.54545 45.9091 4.54545C45.7143 4.54545 45.4075 4.34091 45.2273 4.09091C45.047 3.84091 44.7177 3.63636 44.4952 3.63636C44.273 3.63636 44.0909 3.53409 44.0909 3.40909C44.0909 3.28409 43.8864 3.18182 43.6364 3.18182C43.3864 3.18182 43.1818 3.07955 43.1818 2.95455C43.1818 2.82955 42.875 2.72727 42.5 2.72727C42.125 2.72727 41.8182 2.625 41.8182 2.5C41.8182 2.375 41.6136 2.27273 41.3636 2.27273C41.1136 2.27273 40.9091 2.17045 40.9091 2.04545C40.9091 1.92045 40.6023 1.81818 40.2273 1.81818C39.8523 1.81818 39.5455 1.71591 39.5455 1.59091C39.5455 1.46591 39.2473 1.36364 38.8825 1.36364C38.518 1.36364 38.1775 1.23682 38.1257 1.08159C38.0573 0.876364 37.9282 0.902955 37.6523 1.17909C37.4084 1.42273 37.2727 1.93 37.2727 2.5975C37.2727 3.16886 37.1705 3.63636 37.0455 3.63636C36.6968 3.63636 36.7757 5.21727 37.143 5.58432C37.3214 5.76295 37.7305 5.90909 38.052 5.90909C38.3734 5.90909 38.6364 6.01136 38.6364 6.13636C38.6364 6.26136 38.9432 6.36364 39.3182 6.36364C39.6932 6.36364 40 6.46591 40 6.59091C40 6.71591 40.2045 6.81818 40.4545 6.81818C40.7045 6.81818 40.9091 6.92045 40.9091 7.04545C40.9091 7.17045 41.1136 7.27273 41.3636 7.27273C41.6136 7.27273 41.8182 7.375 41.8182 7.5C41.8182 7.625 42.0227 7.72727 42.2727 7.72727C42.5227 7.72727 42.7273 7.82955 42.7273 7.95455C42.7273 8.07955 42.9093 8.18182 43.1316 8.18182C43.3541 8.18182 43.6834 8.38636 43.8636 8.63636C44.0439 8.88636 44.3323 9.09091 44.5045 9.09091C44.6766 9.09091 45.1043 9.39773 45.4545 9.77273C45.8048 10.1477 46.2055 10.4545 46.3448 10.4545C46.6755 10.4545 50 13.7791 50 14.1098C50 14.2491 50.3068 14.6498 50.6818 15C51.0568 15.3502 51.3636 15.8005 51.3636 16.0002C51.3636 16.2002 51.4659 16.3636 51.5909 16.3636C51.7159 16.3636 51.8182 16.5457 51.8182 16.768C51.8182 16.9905 52.0227 17.3198 52.2727 17.5C52.5227 17.6802 52.7273 18.0095 52.7273 18.232C52.7273 18.4543 52.8295 18.6364 52.9545 18.6364C53.0795 18.6364 53.1818 18.8409 53.1818 19.0909C53.1818 19.3409 53.2841 19.5455 53.4091 19.5455C53.5341 19.5455 53.6364 19.8523 53.6364 20.2273C53.6364 20.6023 53.7386 20.9091 53.8636 20.9091C53.9886 20.9091 54.0909 21.2159 54.0909 21.5909C54.0909 21.9659 54.1932 22.2727 54.3182 22.2727C54.4432 22.2727 54.5455 22.5795 54.5455 22.9545C54.5455 23.3295 54.6477 23.6364 54.7727 23.6364C54.8977 23.6364 55 24.0455 55 24.5455C55 25.0455 55.1023 25.4545 55.2273 25.4545C55.3711 25.4545 55.4545 27.1211 55.4545 30C55.4545 32.8789 55.3711 34.5455 55.2273 34.5455C55.1023 34.5455 55 35.0568 55 35.6818C55 36.3068 54.8977 36.8182 54.7727 36.8182C54.6477 36.8182 54.5455 37.125 54.5455 37.5C54.5455 37.875 54.4432 38.1818 54.3182 38.1818C54.1932 38.1818 54.0909 38.4886 54.0909 38.8636C54.0909 39.2386 53.9886 39.5455 53.8636 39.5455C53.7386 39.5455 53.6364 39.75 53.6364 40C53.6364 40.25 53.5341 40.4545 53.4091 40.4545C53.2841 40.4545 53.1818 40.6591 53.1818 40.9091C53.1818 41.1591 53.0795 41.3636 52.9545 41.3636C52.8295 41.3636 52.7273 41.5682 52.7273 41.8182C52.7273 42.0682 52.625 42.2727 52.5 42.2727C52.375 42.2727 52.2727 42.4548 52.2727 42.677C52.2727 42.8995 52.0682 43.2289 51.8182 43.4091C51.5682 43.5893 51.3636 43.8961 51.3636 44.0909C51.3636 44.2857 51.1591 44.5925 50.9091 44.7727C50.6591 44.953 50.4545 45.2323 50.4545 45.3936C50.4545 45.7511 45.7893 50.4545 45.4348 50.4545C45.2959 50.4545 44.8957 50.7614 44.5455 51.1364C44.1952 51.5114 43.745 51.8182 43.5452 51.8182C43.3452 51.8182 43.1818 51.9205 43.1818 52.0455C43.1818 52.1705 42.9773 52.2727 42.7273 52.2727C42.4773 52.2727 42.2727 52.375 42.2727 52.5C42.2727 52.625 42.0682 52.7273 41.8182 52.7273C41.5682 52.7273 41.3636 52.8295 41.3636 52.9545C41.3636 53.0795 41.1591 53.1818 40.9091 53.1818C40.6591 53.1818 40.4545 53.2841 40.4545 53.4091C40.4545 53.5341 40.25 53.6364 40 53.6364C39.75 53.6364 39.5455 53.7386 39.5455 53.8636C39.5455 53.9886 39.2386 54.0909 38.8636 54.0909C38.4886 54.0909 38.1818 54.1932 38.1818 54.3182C38.1818 54.4432 37.875 54.5455 37.5 54.5455C37.125 54.5455 36.8182 54.6477 36.8182 54.7727C36.8182 54.8977 36.3068 55 35.6818 55C35.0568 55 34.5455 55.1023 34.5455 55.2273C34.5455 55.3711 32.8789 55.4545 30 55.4545C27.1211 55.4545 25.4545 55.3711 25.4545 55.2273C25.4545 55.1023 25.0455 55 24.5455 55C24.0455 55 23.6364 54.8977 23.6364 54.7727C23.6364 54.6477 23.2273 54.5455 22.7273 54.5455C22.2273 54.5455 21.8182 54.4432 21.8182 54.3182C21.8182 54.1932 21.6136 54.0909 21.3636 54.0909C21.1136 54.0909 20.9091 53.9886 20.9091 53.8636C20.9091 53.7386 20.6023 53.6364 20.2273 53.6364C19.8523 53.6364 19.5455 53.5341 19.5455 53.4091C19.5455 53.2841 19.3409 53.1818 19.0909 53.1818C18.8409 53.1818 18.6364 53.0795 18.6364 52.9545C18.6364 52.8295 18.4318 52.7273 18.1818 52.7273C17.9318 52.7273 17.7273 52.625 17.7273 52.5C17.7273 52.375 17.5452 52.2727 17.323 52.2727C17.1005 52.2727 16.7711 52.0682 16.5909 51.8182C16.4107 51.5682 16.1223 51.3636 15.95 51.3636C15.778 51.3636 15.3502 51.0568 15 50.6818C14.6498 50.3068 14.2493 50 14.1102 50C13.78 50 10 46.22 10 45.8898C10 45.7507 9.69318 45.3502 9.31818 45C8.94318 44.6498 8.63636 44.1995 8.63636 43.9998C8.63636 43.7998 8.53409 43.6364 8.40909 43.6364C8.28409 43.6364 8.18182 43.4543 8.18182 43.232C8.18182 43.0095 7.97727 42.6802 7.72727 42.5C7.47727 42.3198 7.27273 41.9905 7.27273 41.768C7.27273 41.5457 7.17045 41.3636 7.04545 41.3636C6.92045 41.3636 6.81818 41.0568 6.81818 40.6818C6.81818 40.3068 6.71591 40 6.59091 40C6.46591 40 6.36364 39.7955 6.36364 39.5455C6.36364 39.2955 6.26136 39.0909 6.13636 39.0909C6.01136 39.0909 5.90909 38.7841 5.90909 38.4091C5.90909 38.0341 5.80682 37.7273 5.68182 37.7273C5.55682 37.7273 5.45455 37.3182 5.45455 36.8182C5.45455 36.3182 5.35227 35.9091 5.22727 35.9091C5.10227 35.9091 5 35.3977 5 34.7727C5 34.1477 4.89773 33.6364 4.77273 33.6364C4.63068 33.6364 4.54545 32.2727 4.54545 30C4.54545 27.7273 4.63068 26.3636 4.77273 26.3636C4.89773 26.3636 5 25.8523 5 25.2273C5 24.6023 5.10227 24.0909 5.22727 24.0909C5.35227 24.0909 5.45455 23.6818 5.45455 23.1818C5.45455 22.6818 5.55682 22.2727 5.68182 22.2727C5.80682 22.2727 5.90909 22.0682 5.90909 21.8182C5.90909 21.5682 6.01136 21.3636 6.13636 21.3636C6.26136 21.3636 6.36364 21.0568 6.36364 20.6818C6.36364 20.3068 6.46591 20 6.59091 20C6.71591 20 6.81818 19.7955 6.81818 19.5455C6.81818 19.2955 6.92045 19.0909 7.04545 19.0909C7.17045 19.0909 7.27273 18.8864 7.27273 18.6364C7.27273 18.3864 7.375 18.1818 7.5 18.1818C7.625 18.1818 7.72727 17.9773 7.72727 17.7273C7.72727 17.4773 7.82955 17.2727 7.95455 17.2727C8.07955 17.2727 8.18182 17.0907 8.18182 16.8684C8.18182 16.6459 8.38636 16.3166 8.63636 16.1364C8.88636 15.9561 9.09091 15.67 9.09091 15.5002C9.09091 15.3305 9.5 14.7986 10 14.3182C10.5 13.8377 10.9091 13.3311 10.9091 13.192C10.9091 12.8634 12.4089 11.3636 12.7375 11.3636C12.8766 11.3636 13.3832 10.9545 13.8636 10.4545C14.3441 9.95455 14.8759 9.54545 15.0457 9.54545C15.2155 9.54545 15.5016 9.34091 15.6818 9.09091C15.862 8.84091 16.1689 8.63636 16.3636 8.63636C16.5584 8.63636 16.8652 8.43182 17.0455 8.18182C17.2257 7.93182 17.555 7.72727 17.7775 7.72727C17.9998 7.72727 18.1818 7.625 18.1818 7.5C18.1818 7.375 18.3864 7.27273 18.6364 7.27273C18.8864 7.27273 19.0909 7.17045 19.0909 7.04545C19.0909 6.92045 19.2955 6.81818 19.5455 6.81818C19.7955 6.81818 20 6.71591 20 6.59091C20 6.46591 20.3068 6.36364 20.6818 6.36364C21.0568 6.36364 21.3636 6.26136 21.3636 6.13636C21.3636 6.01136 21.6705 5.90909 22.0455 5.90909C22.4205 5.90909 22.7273 5.80682 22.7273 5.68182C22.7273 5.55682 23.1364 5.45455 23.6364 5.45455C24.1364 5.45455 24.5455 5.35227 24.5455 5.22727C24.5455 5.10091 25.1516 5 25.9091 5C26.6666 5 27.2727 4.89909 27.2727 4.77273C27.2727 4.64773 27.375 4.54545 27.5 4.54545C27.6264 4.54545 27.7273 5.15159 27.7273 5.90909C27.7273 6.66659 27.6264 7.27273 27.5 7.27273C27.375 7.27273 27.2727 7.78409 27.2727 8.40909C27.2727 9.03409 27.1705 9.54545 27.0455 9.54545C26.9205 9.54545 26.8182 9.80545 26.8182 10.1234C26.8182 10.5443 27.3118 11.1898 28.6364 12.5C29.6364 13.4893 30.4545 14.4077 30.4545 14.5411C30.4545 14.6745 31.9886 16.3127 33.8636 18.1818C35.7386 20.0509 37.2727 21.687 37.2727 21.818C37.2727 21.9486 38.9091 23.6875 40.9091 25.6818C42.9091 27.6761 44.5455 29.4227 44.5455 29.5627C44.5455 29.703 44.8655 30.1166 45.2566 30.4818L45.9675 31.1461L45.4839 31.5657C45.2177 31.7964 45 32.1295 45 32.3061C45 32.4825 44.7955 32.7743 44.5455 32.9545C44.2955 33.1348 44.0909 33.4416 44.0909 33.6364C44.0909 33.8311 43.8864 34.138 43.6364 34.3182C43.3864 34.4984 43.1818 34.8277 43.1818 35.0502C43.1818 35.3705 42.9927 35.4545 42.2727 35.4545C41.7727 35.4545 41.3636 35.3523 41.3636 35.2273C41.3636 35.1009 40.7575 35 40 35C39.2425 35 38.6364 34.8991 38.6364 34.7727C38.6364 34.643 37.9545 34.5455 37.0455 34.5455C36.1364 34.5455 35.4545 34.448 35.4545 34.3182C35.4545 34.1884 34.7727 34.0909 33.8636 34.0909C32.9545 34.0909 32.2727 33.9934 32.2727 33.8636C32.2727 33.3582 31.0707 33.6586 30.4545 34.3182C30.1043 34.6932 29.6541 35 29.4543 35C29.2543 35 29.0909 35.1023 29.0909 35.2273C29.0909 35.3523 28.8864 35.4545 28.6364 35.4545C28.3864 35.4545 28.1818 35.5568 28.1818 35.6818C28.1818 35.8068 27.9773 35.9091 27.7273 35.9091C27.4773 35.9091 27.2727 36.0114 27.2727 36.1364C27.2727 36.2614 26.9659 36.3636 26.5909 36.3636C26.2159 36.3636 25.9091 36.4659 25.9091 36.5909C25.9091 36.7207 25.2273 36.8182 24.3182 36.8182C23.4091 36.8182 22.7273 36.7207 22.7273 36.5909C22.7273 36.4659 22.4205 36.3636 22.0455 36.3636C21.6705 36.3636 21.3636 36.2614 21.3636 36.1364C21.3636 36.0114 21.1591 35.9091 20.9091 35.9091C20.6591 35.9091 20.4545 35.8068 20.4545 35.6818C20.4545 35.5568 20.2989 35.4545 20.1086 35.4545C19.6586 35.4545 17.2727 33.0686 17.2727 32.6186C17.2727 32.4284 17.1705 32.2727 17.0455 32.2727C16.9205 32.2727 16.8182 32.0682 16.8182 31.8182C16.8182 31.5682 16.7159 31.3636 16.5909 31.3636C16.4659 31.3636 16.3636 31.0568 16.3636 30.6818C16.3636 30.3068 16.2614 30 16.1364 30C16.0066 30 15.9091 29.3182 15.9091 28.4091C15.9091 27.5 16.0066 26.8182 16.1364 26.8182C16.2614 26.8182 16.3636 26.52 16.3636 26.1552C16.3636 25.7907 16.487 25.4514 16.638 25.4009C16.9505 25.2968 14.933 23.1818 14.5214 23.1818C14.3764 23.1818 14.072 22.9675 13.8448 22.7057L13.4318 22.2293L12.8523 22.8089C12.5334 23.1277 12.2727 23.5466 12.2727 23.7398C12.2727 23.933 12.1705 24.0909 12.0455 24.0909C11.9205 24.0909 11.8182 24.5 11.8182 25C11.8182 25.5 11.7159 25.9091 11.5909 25.9091C11.4532 25.9091 11.3636 26.8939 11.3636 28.4091C11.3636 29.9243 11.4532 30.9091 11.5909 30.9091C11.7159 30.9091 11.8182 31.3182 11.8182 31.8182C11.8182 32.3182 11.9205 32.7273 12.0455 32.7273C12.1705 32.7273 12.2727 32.9318 12.2727 33.1818C12.2727 33.4318 12.375 33.6364 12.5 33.6364C12.625 33.6364 12.7273 33.8409 12.7273 34.0909C12.7273 34.3409 12.8295 34.5455 12.9545 34.5455C13.0795 34.5455 13.1818 34.7089 13.1818 34.9089C13.1818 35.1086 13.4886 35.5589 13.8636 35.9091C14.2386 36.2593 14.5455 36.663 14.5455 36.8061C14.5455 37.1434 15.5839 38.1818 15.9211 38.1818C16.0643 38.1818 16.468 38.4886 16.8182 38.8636C17.1684 39.2386 17.6186 39.5455 17.8184 39.5455C18.0184 39.5455 18.1818 39.6477 18.1818 39.7727C18.1818 39.8977 18.3864 40 18.6364 40C18.8864 40 19.0909 40.1023 19.0909 40.2273C19.0909 40.3523 19.3977 40.4545 19.7727 40.4545C20.1477 40.4545 20.4545 40.5568 20.4545 40.6818C20.4545 40.8068 20.8636 40.9091 21.3636 40.9091C21.8636 40.9091 22.2727 41.0114 22.2727 41.1364C22.2727 41.2711 23.1061 41.3636 24.3182 41.3636C25.5302 41.3636 26.3636 41.2711 26.3636 41.1364C26.3636 41.0114 26.7727 40.9091 27.2727 40.9091C27.7727 40.9091 28.1818 40.8068 28.1818 40.6818C28.1818 40.5568 28.4886 40.4545 28.8636 40.4545C29.2386 40.4545 29.5455 40.3523 29.5455 40.2273C29.5455 40.1023 29.75 40 30 40C30.25 40 30.4545 39.8977 30.4545 39.7727C30.4545 39.6477 30.6366 39.5455 30.8589 39.5455C31.0814 39.5455 31.4107 39.3409 31.5909 39.0909C31.8632 38.7132 32.1793 38.6364 33.4593 38.6364C34.335 38.6364 35 38.7345 35 38.8636C35 38.9934 35.6818 39.0909 36.5909 39.0909C37.5 39.0909 38.1818 39.1884 38.1818 39.3182C38.1818 39.4445 38.788 39.5455 39.5455 39.5455C40.303 39.5455 40.9091 39.6464 40.9091 39.7727C40.9091 39.8977 41.4205 40 42.0455 40C42.6705 40 43.1818 40.1023 43.1818 40.2273C43.1818 40.3523 43.5471 40.4545 43.9934 40.4545C44.8016 40.4545 45.4545 40.0455 45.4545 39.5393C45.4545 39.393 45.7614 38.9866 46.1364 38.6364C46.5114 38.2861 46.8182 37.8584 46.8182 37.6864C46.8182 37.5141 47.0227 37.2257 47.2727 37.0455C47.5227 36.8652 47.7273 36.5584 47.7273 36.3636C47.7273 36.1689 47.9318 35.862 48.1818 35.6818C48.4318 35.5016 48.6364 35.2132 48.6364 35.0409C48.6364 34.8689 48.9432 34.4411 49.3182 34.0909C49.6932 33.7407 50 33.313 50 33.1409C50 32.9686 50.2045 32.6802 50.4545 32.5C50.7045 32.3198 50.9091 32.028 50.9091 31.8516C50.9091 31.675 51.1255 31.343 51.3898 31.1136L51.8707 30.6966L50.9352 29.798C50.4209 29.3036 50 28.7866 50 28.6491C50 28.5116 48.3636 26.767 46.3636 24.7727C44.3636 22.7784 42.7273 21.0398 42.7273 20.9091C42.7273 20.7784 41.0909 19.0398 39.0909 17.0455C37.0909 15.0511 35.4545 13.3102 35.4545 13.1773C35.4545 13.0441 34.6364 12.1257 33.6364 11.1364C32.0443 9.56136 31.8182 9.2375 31.8182 8.5325C31.8182 8.08955 31.9205 7.72727 32.0455 7.72727C32.1705 7.72727 32.2727 7.31818 32.2727 6.81818C32.2727 6.31818 32.375 5.90909 32.5 5.90909C32.625 5.90909 32.7273 5.39773 32.7273 4.77273C32.7273 4.14773 32.8295 3.63636 32.9545 3.63636C33.0795 3.63636 33.1818 3.125 33.1818 2.5C33.1818 1.875 33.2841 1.36364 33.4091 1.36364C33.5341 1.36364 33.6364 1.05682 33.6364 0.681818V0H30.2273C28.1061 0 26.8182 0.0859091 26.8182 0.227273ZM25.5114 20.1193C25.23 20.4198 25 20.8227 25 21.0145C25 21.2066 24.8977 21.3636 24.7727 21.3636C24.6477 21.3636 24.5455 21.5682 24.5455 21.8182C24.5455 22.0682 24.6477 22.2727 24.7727 22.2727C24.8977 22.2727 25 22.4307 25 22.6239C25 22.817 25.2511 23.2261 25.558 23.533C25.9866 23.9618 26.355 24.0909 27.1489 24.0909C27.717 24.0909 28.1818 23.9886 28.1818 23.8636C28.1818 23.7386 28.3864 23.6364 28.6364 23.6364C28.9393 23.6364 29.0909 23.4848 29.0909 23.1818C29.0909 22.9318 29.1932 22.7273 29.3182 22.7273C29.4432 22.7273 29.5455 22.3182 29.5455 21.8182C29.5455 21.3182 29.4432 20.9091 29.3182 20.9091C29.1932 20.9091 29.0909 20.7484 29.0909 20.552C29.0909 19.8709 28.4805 19.545 27.232 19.5593C26.2593 19.5705 25.9227 19.68 25.5114 20.1193Z" fill="black"/>
</svg>
