<svg width="32" height="22" viewBox="0 0 32 22" fill="none" xmlns="http://www.w3.org/2000/svg">
<path d="M29.3333 21.6667H2.66667C1.196 21.6667 0 20.4707 0 19V3.00001C0 1.52934 1.196 0.333344 2.66667 0.333344H29.3333C30.804 0.333344 32 1.52934 32 3.00001V19C32 20.4707 30.804 21.6667 29.3333 21.6667ZM2.66667 1.66668C1.93133 1.66668 1.33333 2.26468 1.33333 3.00001V19C1.33333 19.7353 1.93133 20.3333 2.66667 20.3333H29.3333C30.0687 20.3333 30.6667 19.7353 30.6667 19V3.00001C30.6667 2.26468 30.0687 1.66668 29.3333 1.66668H2.66667Z" fill="white"/>
<path d="M16 14.4607L4.3047 6.89333C3.99536 6.69267 3.9067 6.28067 4.1067 5.97133C4.3067 5.662 4.71936 5.574 5.0287 5.77333L16 12.8727L26.9714 5.77333C27.2807 5.574 27.6934 5.662 27.8934 5.97133C28.0934 6.28067 28.0047 6.69267 27.6954 6.89333L16 14.4607Z" fill="white"/>
<path d="M4.00072 17.6667C3.78539 17.6667 3.57339 17.5627 3.44539 17.37C3.24072 17.0633 3.32339 16.65 3.63006 16.4453L9.63006 12.4453C9.93672 12.2407 10.3507 12.3233 10.5547 12.63C10.7594 12.9367 10.6767 13.35 10.3701 13.5547L4.37006 17.5547C4.25606 17.63 4.12739 17.6667 4.00072 17.6667Z" fill="white"/>
<path d="M27.9994 17.6667C27.8727 17.6667 27.7441 17.63 27.6301 17.5547L21.6301 13.5547C21.3234 13.35 21.2407 12.9367 21.4454 12.63C21.6494 12.3233 22.0627 12.2407 22.3701 12.4453L28.3701 16.4453C28.6767 16.65 28.7594 17.0633 28.5547 17.37C28.4267 17.5627 28.2147 17.6667 27.9994 17.6667Z" fill="white"/>
</svg>
