<svg width="32" height="21" viewBox="0 0 32 21" fill="none" xmlns="http://www.w3.org/2000/svg">
<path d="M29.3333 16.9996H2.66667C1.196 16.9996 0 16.2507 0 15.3298V5.31092C0 4.39002 1.196 3.64111 2.66667 3.64111H29.3333C30.804 3.64111 32 4.39002 32 5.31092V15.3298C32 16.2507 30.804 16.9996 29.3333 16.9996ZM2.66667 4.47602C1.93133 4.47602 1.33333 4.85047 1.33333 5.31092V15.3298C1.33333 15.7902 1.93133 16.1647 2.66667 16.1647H29.3333C30.0687 16.1647 30.6667 15.7902 30.6667 15.3298V5.31092C30.6667 4.85047 30.0687 4.47602 29.3333 4.47602H2.66667Z" fill="white"/>
<path d="M15.9998 12.4871L4.30445 7.74857C3.99512 7.62292 3.90645 7.36493 4.10645 7.17123C4.30645 6.97753 4.71912 6.92243 5.02845 7.04725L15.9998 11.4927L26.9711 7.04725C27.2805 6.92243 27.6931 6.97753 27.8931 7.17123C28.0931 7.36493 28.0045 7.62292 27.6951 7.74857L15.9998 12.4871Z" fill="white"/>
<path d="M4.00072 14.4951C3.78539 14.4951 3.57339 14.43 3.44539 14.3094C3.24072 14.1173 3.32339 13.8585 3.63006 13.7304L9.63006 11.2256C9.93672 11.0975 10.3507 11.1493 10.5547 11.3413C10.7594 11.5333 10.6767 11.7921 10.3701 11.9203L4.37006 14.425C4.25606 14.4722 4.12739 14.4951 4.00072 14.4951Z" fill="white"/>
<path d="M27.9994 14.4951C27.8727 14.4951 27.7441 14.4722 27.6301 14.425L21.6301 11.9203C21.3234 11.7921 21.2407 11.5333 21.4454 11.3413C21.6494 11.1493 22.0627 11.0975 22.3701 11.2256L28.3701 13.7304C28.6767 13.8585 28.7594 14.1173 28.5547 14.3094C28.4267 14.43 28.2147 14.4951 27.9994 14.4951Z" fill="white"/>
</svg>
