<svg width="43" height="38" viewBox="0 0 43 38" fill="none" xmlns="http://www.w3.org/2000/svg">
<rect width="42" height="2" fill="white"/>
<rect y="6" width="29" height="2" fill="white"/>
<rect y="12" width="7" height="2" fill="white"/>
<path d="M5.955 33.56C5.855 33.32 5.72 33.015 5.55 32.645C5.39 32.275 5.215 31.875 5.025 31.445C4.835 31.015 4.63 30.575 4.41 30.125C4.2 29.665 4 29.235 3.81 28.835C3.62 28.425 3.44 28.06 3.27 27.74C3.11 27.42 2.98 27.175 2.88 27.005C2.77 28.185 2.68 29.465 2.61 30.845C2.54 32.215 2.48 33.6 2.43 35H1.005C1.045 34.1 1.09 33.195 1.14 32.285C1.19 31.365 1.245 30.465 1.305 29.585C1.375 28.695 1.445 27.83 1.515 26.99C1.595 26.15 1.68 25.355 1.77 24.605H3.045C3.315 25.045 3.605 25.565 3.915 26.165C4.225 26.765 4.535 27.395 4.845 28.055C5.155 28.705 5.455 29.36 5.745 30.02C6.035 30.67 6.3 31.265 6.54 31.805C6.78 31.265 7.045 30.67 7.335 30.02C7.625 29.36 7.925 28.705 8.235 28.055C8.545 27.395 8.855 26.765 9.165 26.165C9.475 25.565 9.765 25.045 10.035 24.605H11.31C11.65 27.955 11.905 31.42 12.075 35H10.65C10.6 33.6 10.54 32.215 10.47 30.845C10.4 29.465 10.31 28.185 10.2 27.005C10.1 27.175 9.965 27.42 9.795 27.74C9.635 28.06 9.46 28.425 9.27 28.835C9.08 29.235 8.875 29.665 8.655 30.125C8.445 30.575 8.245 31.015 8.055 31.445C7.865 31.875 7.685 32.275 7.515 32.645C7.355 33.015 7.225 33.32 7.125 33.56H5.955ZM14.3564 35V24.605H20.7014V25.85H15.8114V28.94H20.1614V30.155H15.8114V33.755H21.0764V35H14.3564ZM30.0507 35C29.8307 34.63 29.5757 34.215 29.2857 33.755C29.0057 33.295 28.7007 32.82 28.3707 32.33C28.0407 31.83 27.6957 31.325 27.3357 30.815C26.9857 30.305 26.6357 29.815 26.2857 29.345C25.9357 28.865 25.5957 28.415 25.2657 27.995C24.9357 27.575 24.6307 27.205 24.3507 26.885V35H22.9257V24.605H24.0807C24.5507 25.105 25.0507 25.69 25.5807 26.36C26.1207 27.02 26.6507 27.705 27.1707 28.415C27.7007 29.115 28.1957 29.805 28.6557 30.485C29.1257 31.165 29.5207 31.77 29.8407 32.3V24.605H31.2657V35H30.0507ZM37.7088 35.225C37.0288 35.225 36.4388 35.12 35.9388 34.91C35.4388 34.7 35.0288 34.415 34.7088 34.055C34.3888 33.685 34.1488 33.25 33.9888 32.75C33.8388 32.25 33.7638 31.71 33.7638 31.13V24.605H35.2188V30.965C35.2188 32.005 35.4488 32.76 35.9088 33.23C36.3688 33.7 36.9688 33.935 37.7088 33.935C38.0788 33.935 38.4138 33.88 38.7138 33.77C39.0238 33.65 39.2888 33.47 39.5088 33.23C39.7288 32.99 39.8988 32.685 40.0188 32.315C40.1388 31.935 40.1988 31.485 40.1988 30.965V24.605H41.6538V31.13C41.6538 31.71 41.5738 32.25 41.4138 32.75C41.2638 33.25 41.0238 33.685 40.6938 34.055C40.3738 34.415 39.9638 34.7 39.4638 34.91C38.9738 35.12 38.3888 35.225 37.7088 35.225Z" fill="white"/>
</svg>
