<svg width="30" height="30" viewBox="0 0 30 30" fill="none" xmlns="http://www.w3.org/2000/svg">
<path d="M15 28.5C22.4558 28.5 28.5 22.4558 28.5 15C28.5 7.54416 22.4558 1.5 15 1.5C7.54416 1.5 1.5 7.54416 1.5 15C1.5 22.4558 7.54416 28.5 15 28.5Z" fill="white"/>
<path fill-rule="evenodd" clip-rule="evenodd" d="M15.442 18.2263C14.9221 18.7327 14.4067 19.2307 13.8961 19.7326C13.7176 19.9084 13.5169 20.0056 13.2607 19.9921C13.0858 19.9828 12.988 19.906 12.9343 19.7401C12.5431 18.526 12.1462 17.3149 11.7571 16.0996C11.7193 15.9817 11.6635 15.9244 11.5441 15.8875C10.6225 15.6061 9.70266 15.3181 8.78436 15.0262C8.64306 14.9812 8.50056 14.9224 8.37846 14.8393C8.18976 14.7115 8.16216 14.503 8.33136 14.353C8.48766 14.2147 8.67426 14.0941 8.86806 14.0173C9.99456 13.5709 11.1271 13.1389 12.2578 12.703C15.1273 11.5951 17.9968 10.4881 20.8666 9.38024C21.4123 9.16934 21.8317 9.46634 21.775 10.0564C21.7387 10.4338 21.6409 10.8052 21.562 11.1778C20.9389 14.1199 20.3152 17.0623 19.6888 20.0038C19.54 20.7022 19.0495 20.8846 18.4747 20.4607C17.512 19.7512 16.5502 19.0393 15.5881 18.3286C15.5422 18.2953 15.4945 18.2632 15.442 18.2263ZM13.2811 19.1197C13.2919 19.1167 13.3027 19.1137 13.3135 19.111C13.3195 19.0834 13.3282 19.0564 13.3306 19.0291C13.3924 18.3622 13.4578 17.6956 13.5115 17.0275C13.5235 16.8787 13.5745 16.7731 13.6864 16.6729C14.5738 15.8794 15.4558 15.0808 16.3396 14.284C17.3179 13.4017 18.2965 12.5203 19.2712 11.6344C19.3315 11.5798 19.3567 11.4868 19.3981 11.4112C19.3063 11.4013 19.2079 11.3644 19.1245 11.386C19.0108 11.4154 18.9031 11.4814 18.8017 11.5453C16.6426 12.9052 14.4853 14.2675 12.3247 15.6247C12.2026 15.7015 12.1798 15.7666 12.2263 15.9007C12.3856 16.3582 12.5305 16.8199 12.6808 17.2807C12.8809 17.8939 13.081 18.5068 13.2811 19.1197Z" fill="#FF7246"/>
</svg>
