<svg width="30" height="30" viewBox="0 0 30 30" fill="none" xmlns="http://www.w3.org/2000/svg">
<path d="M14.9823 26.1506C11.8593 26.1682 8.73622 26.1272 5.61904 25.9572C4.60536 25.8986 3.59169 25.8107 2.67177 25.3127C2.05654 24.9787 1.58193 24.5158 1.2831 23.8596C0.779193 22.7697 0.620989 21.6213 0.527239 20.4494C0.328021 18.0295 0.316302 15.6096 0.421771 13.1955C0.474505 11.9123 0.515521 10.6174 0.820208 9.35762C0.937396 8.86543 1.10732 8.38497 1.33583 7.92793C1.8749 6.85567 2.8124 6.32247 3.94326 6.09981C4.89247 5.91231 5.86513 5.91817 6.83193 5.87715C10.1073 5.74239 13.3886 5.67207 16.6698 5.70723C19.1952 5.73653 21.7265 5.80098 24.2519 5.92989C25.0311 5.9709 25.8163 5.98262 26.5604 6.25801C27.5683 6.63301 28.3183 7.26582 28.7226 8.29121C29.1151 9.27559 29.2675 10.2951 29.3495 11.3439C29.578 14.1916 29.5839 17.0393 29.3964 19.8869C29.3319 20.8479 29.2675 21.8088 29.0155 22.7522C28.4472 24.9201 27.0936 25.7697 25.1073 25.9045C22.9862 26.0451 20.8593 26.1213 18.7323 26.1506C17.4843 26.1623 16.2304 26.1506 14.9823 26.1506ZM11.9061 20.1564C14.7421 18.6037 17.5429 17.0686 20.3905 15.51C17.537 13.9455 14.7362 12.4162 11.9061 10.8635C11.9061 13.9865 11.9061 17.051 11.9061 20.1564Z" fill="white"/>
</svg>
