<svg width="189" height="149" viewBox="0 0 189 149" fill="none" xmlns="http://www.w3.org/2000/svg">
<path d="M34.23 66C33.25 64.4133 32.0833 62.71 30.73 60.89C29.4233 59.0233 27.9767 57.18 26.39 55.36C24.85 53.4933 23.24 51.72 21.56 50.04C19.88 48.3133 18.2 46.7967 16.52 45.49V66H5.6V17.49H16.52V35.83C19.3667 32.8433 22.2133 29.74 25.06 26.52C27.9533 23.2533 30.6367 20.2433 33.11 17.49H46.06C42.7467 21.41 39.41 25.19 36.05 28.83C32.7367 32.47 29.2367 36.1333 25.55 39.82C29.4233 43.04 33.1567 46.8667 36.75 51.3C40.39 55.7333 43.8667 60.6333 47.18 66H34.23ZM79.1388 47.52C79.1388 50.4133 78.7188 53.0733 77.8788 55.5C77.0388 57.88 75.8255 59.9333 74.2388 61.66C72.6522 63.34 70.7388 64.6467 68.4988 65.58C66.3055 66.5133 63.8322 66.98 61.0788 66.98C58.3722 66.98 55.8988 66.5133 53.6588 65.58C51.4655 64.6467 49.5755 63.34 47.9888 61.66C46.4022 59.9333 45.1655 57.88 44.2788 55.5C43.3922 53.0733 42.9488 50.4133 42.9488 47.52C42.9488 44.6267 43.3922 41.99 44.2788 39.61C45.2122 37.23 46.4722 35.2 48.0588 33.52C49.6922 31.84 51.6055 30.5333 53.7988 29.6C56.0388 28.6667 58.4655 28.2 61.0788 28.2C63.7388 28.2 66.1655 28.6667 68.3588 29.6C70.5988 30.5333 72.5122 31.84 74.0988 33.52C75.6855 35.2 76.9222 37.23 77.8088 39.61C78.6955 41.99 79.1388 44.6267 79.1388 47.52ZM68.4988 47.52C68.4988 44.3 67.8455 41.78 66.5388 39.96C65.2788 38.0933 63.4588 37.16 61.0788 37.16C58.6988 37.16 56.8555 38.0933 55.5488 39.96C54.2422 41.78 53.5888 44.3 53.5888 47.52C53.5888 50.74 54.2422 53.3067 55.5488 55.22C56.8555 57.0867 58.6988 58.02 61.0788 58.02C63.4588 58.02 65.2788 57.0867 66.5388 55.22C67.8455 53.3067 68.4988 50.74 68.4988 47.52ZM108.935 36.18C108.095 37.1133 106.951 38.3733 105.505 39.96C104.105 41.5467 102.588 43.2967 100.955 45.21C99.3214 47.1233 97.6648 49.13 95.9848 51.23C94.3514 53.33 92.8581 55.36 91.5048 57.32H109.285V66H78.8348V59.84C79.8148 58.16 80.9814 56.3633 82.3348 54.45C83.7348 52.49 85.1814 50.53 86.6748 48.57C88.2148 46.61 89.7314 44.72 91.2248 42.9C92.7181 41.0333 94.0948 39.3533 95.3548 37.86H79.6748V29.18H108.935V36.18ZM144.145 56.62V66H111.735V17.49H122.655V56.62H144.145ZM174.637 29.18C172.537 36.2733 170.344 42.9233 168.057 49.13C165.77 55.3367 163.274 61.3567 160.567 67.19C159.587 69.29 158.607 71.0633 157.627 72.51C156.647 74.0033 155.574 75.2167 154.407 76.15C153.24 77.13 151.91 77.83 150.417 78.25C148.97 78.7167 147.267 78.95 145.307 78.95C143.674 78.95 142.157 78.7867 140.757 78.46C139.404 78.18 138.284 77.8533 137.397 77.48L139.217 69.15C140.29 69.5233 141.247 69.78 142.087 69.92C142.927 70.06 143.814 70.13 144.747 70.13C146.614 70.13 148.037 69.6167 149.017 68.59C150.044 67.61 150.907 66.2333 151.607 64.46C149.227 59.7933 146.847 54.5667 144.467 48.78C142.087 42.9467 139.847 36.4133 137.747 29.18H148.807C149.274 31 149.81 32.9833 150.417 35.13C151.07 37.23 151.747 39.3767 152.447 41.57C153.147 43.7167 153.847 45.8167 154.547 47.87C155.294 49.9233 155.994 51.79 156.647 53.47C157.254 51.79 157.884 49.9233 158.537 47.87C159.19 45.8167 159.82 43.7167 160.427 41.57C161.08 39.3767 161.687 37.23 162.247 35.13C162.854 32.9833 163.39 31 163.857 29.18H174.637Z" fill="white"/>
<path d="M33.36 137C32.6 134.96 31.88 133 31.2 131.12C30.52 129.24 29.86 127.4 29.22 125.6H9C8.32 127.4 7.64 129.24 6.96 131.12C6.28 133 5.58 134.96 4.86 137H0.6C2.2 132.68 3.7 128.66 5.1 124.94C6.5 121.18 7.86 117.64 9.18 114.32C10.54 110.96 11.88 107.74 13.2 104.66C14.52 101.58 15.92 98.5 17.4 95.42H21C22.48 98.5 23.88 101.58 25.2 104.66C26.52 107.74 27.84 110.96 29.16 114.32C30.52 117.64 31.9 121.18 33.3 124.94C34.7 128.66 36.22 132.68 37.86 137H33.36ZM19.08 100.1C17.56 103.54 16.08 107.04 14.64 110.6C13.24 114.16 11.78 118 10.26 122.12H27.96C26.44 118 24.96 114.16 23.52 110.6C22.08 107.04 20.6 103.54 19.08 100.1ZM59.3175 133.4C59.0775 133.6 58.7175 133.84 58.2375 134.12C57.7575 134.36 57.1575 134.62 56.4375 134.9C55.7575 135.18 54.9575 135.42 54.0375 135.62C53.1575 135.78 52.1575 135.86 51.0375 135.86C49.2375 135.86 47.4975 135.58 45.8175 135.02C44.1375 134.46 42.6575 133.58 41.3775 132.38C40.1375 131.18 39.1375 129.64 38.3775 127.76C37.6175 125.84 37.2375 123.52 37.2375 120.8C37.2375 118.6 37.5775 116.56 38.2575 114.68C38.9375 112.8 39.8975 111.18 41.1375 109.82C42.4175 108.42 43.9575 107.34 45.7575 106.58C47.5975 105.78 49.6575 105.38 51.9375 105.38C54.8175 105.38 57.1175 105.58 58.8375 105.98C60.5975 106.34 62.0375 106.7 63.1575 107.06V135.38C63.1575 140.02 61.9575 143.32 59.5575 145.28C57.1575 147.28 53.5375 148.28 48.6975 148.28C46.6975 148.28 44.8775 148.12 43.2375 147.8C41.6375 147.52 40.2575 147.18 39.0975 146.78L39.8775 143.24C40.8375 143.68 42.1375 144.06 43.7775 144.38C45.4575 144.7 47.1375 144.86 48.8175 144.86C52.4975 144.86 55.1575 144.14 56.7975 142.7C58.4775 141.3 59.3175 138.88 59.3175 135.44V133.4ZM59.2575 109.76C58.5775 109.56 57.6975 109.38 56.6175 109.22C55.5375 109.02 53.9975 108.92 51.9975 108.92C50.3175 108.92 48.8175 109.22 47.4975 109.82C46.2175 110.38 45.1175 111.2 44.1975 112.28C43.2775 113.32 42.5775 114.58 42.0975 116.06C41.6175 117.5 41.3775 119.1 41.3775 120.86C41.3775 122.9 41.6575 124.66 42.2175 126.14C42.7775 127.58 43.4975 128.76 44.3775 129.68C45.2975 130.6 46.3375 131.28 47.4975 131.72C48.6575 132.12 49.8375 132.32 51.0375 132.32C52.7975 132.32 54.3975 132.06 55.8375 131.54C57.3175 131.02 58.4575 130.42 59.2575 129.74V109.76ZM67.132 121.46C67.132 118.74 67.512 116.38 68.272 114.38C69.072 112.34 70.092 110.64 71.332 109.28C72.612 107.92 74.052 106.92 75.652 106.28C77.292 105.6 78.972 105.26 80.692 105.26C84.492 105.26 87.512 106.5 89.752 108.98C92.032 111.46 93.172 115.28 93.172 120.44C93.172 120.76 93.152 121.08 93.112 121.4C93.112 121.72 93.092 122.02 93.052 122.3H71.272C71.392 126.1 72.332 129.02 74.092 131.06C75.852 133.1 78.652 134.12 82.492 134.12C84.612 134.12 86.292 133.92 87.532 133.52C88.772 133.12 89.672 132.78 90.232 132.5L90.952 135.86C90.392 136.18 89.332 136.56 87.772 137C86.252 137.44 84.452 137.66 82.372 137.66C79.652 137.66 77.332 137.26 75.412 136.46C73.492 135.66 71.912 134.54 70.672 133.1C69.432 131.66 68.532 129.96 67.972 128C67.412 126 67.132 123.82 67.132 121.46ZM89.152 119C89.072 115.76 88.312 113.24 86.872 111.44C85.432 109.64 83.392 108.74 80.752 108.74C79.352 108.74 78.092 109.02 76.972 109.58C75.892 110.14 74.932 110.9 74.092 111.86C73.292 112.78 72.652 113.86 72.172 115.1C71.732 116.34 71.472 117.64 71.392 119H89.152ZM97.3631 107.06C98.5231 106.74 100.083 106.38 102.043 105.98C104.003 105.58 106.403 105.38 109.243 105.38C111.603 105.38 113.563 105.72 115.123 106.4C116.723 107.08 117.983 108.06 118.903 109.34C119.863 110.58 120.543 112.08 120.943 113.84C121.343 115.6 121.543 117.54 121.543 119.66V137H117.643V120.92C117.643 118.72 117.483 116.86 117.163 115.34C116.883 113.82 116.383 112.58 115.663 111.62C114.983 110.66 114.063 109.98 112.903 109.58C111.783 109.14 110.363 108.92 108.643 108.92C106.803 108.92 105.203 109.02 103.843 109.22C102.523 109.42 101.663 109.6 101.263 109.76V137H97.3631V107.06ZM139.863 137.66C137.463 137.66 135.343 137.28 133.503 136.52C131.663 135.76 130.123 134.68 128.883 133.28C127.683 131.84 126.763 130.14 126.123 128.18C125.483 126.18 125.163 123.98 125.163 121.58C125.163 119.14 125.483 116.92 126.123 114.92C126.803 112.92 127.763 111.2 129.003 109.76C130.243 108.32 131.743 107.22 133.503 106.46C135.263 105.66 137.243 105.26 139.443 105.26C141.123 105.26 142.683 105.4 144.123 105.68C145.603 105.96 146.743 106.32 147.543 106.76L146.523 110.12C145.723 109.72 144.823 109.4 143.823 109.16C142.823 108.92 141.483 108.8 139.803 108.8C136.363 108.8 133.743 109.92 131.943 112.16C130.183 114.36 129.303 117.5 129.303 121.58C129.303 123.42 129.503 125.12 129.903 126.68C130.303 128.2 130.943 129.52 131.823 130.64C132.743 131.72 133.903 132.58 135.303 133.22C136.743 133.82 138.483 134.12 140.523 134.12C142.203 134.12 143.603 133.94 144.723 133.58C145.883 133.18 146.723 132.84 147.243 132.56L148.083 135.92C147.363 136.32 146.223 136.7 144.663 137.06C143.143 137.46 141.543 137.66 139.863 137.66ZM159.225 137.66C157.905 135.22 156.625 132.68 155.385 130.04C154.185 127.4 153.045 124.74 151.965 122.06C150.925 119.34 149.965 116.64 149.085 113.96C148.205 111.24 147.445 108.58 146.805 105.98H150.945C151.385 107.9 151.945 109.98 152.625 112.22C153.305 114.42 154.065 116.7 154.905 119.06C155.785 121.42 156.745 123.84 157.785 126.32C158.825 128.8 159.945 131.24 161.145 133.64C162.025 131.16 162.805 128.82 163.485 126.62C164.165 124.42 164.785 122.24 165.345 120.08C165.945 117.88 166.505 115.64 167.025 113.36C167.585 111.08 168.165 108.62 168.765 105.98H172.665C171.385 111.78 169.925 117.42 168.285 122.9C166.645 128.38 164.865 133.4 162.945 137.96C162.185 139.76 161.405 141.3 160.605 142.58C159.805 143.9 158.905 144.98 157.905 145.82C156.945 146.66 155.805 147.28 154.485 147.68C153.205 148.08 151.685 148.28 149.925 148.28C148.925 148.28 148.005 148.16 147.165 147.92C146.365 147.68 145.865 147.5 145.665 147.38L146.445 144.14C146.605 144.26 147.045 144.42 147.765 144.62C148.525 144.86 149.305 144.98 150.105 144.98C151.225 144.98 152.225 144.86 153.105 144.62C154.025 144.38 154.845 143.96 155.565 143.36C156.285 142.8 156.925 142.06 157.485 141.14C158.085 140.22 158.665 139.06 159.225 137.66Z" fill="white"/>
<circle cx="182" cy="73" r="7" fill="#FF7246"/>
</svg>
