<svg width="1117" height="604" viewBox="0 0 1117 604" fill="none" xmlns="http://www.w3.org/2000/svg">
<path d="M0.5 302C0.5 385.124 62.8165 460.491 163.819 515.106C264.801 569.711 404.341 603.5 558.5 603.5C712.659 603.5 852.199 569.711 953.181 515.106C1054.18 460.491 1116.5 385.124 1116.5 302C1116.5 218.876 1054.18 143.509 953.181 88.8936C852.199 34.289 712.659 0.5 558.5 0.5C404.341 0.5 264.801 34.289 163.819 88.8936C62.8165 143.509 0.5 218.876 0.5 302Z" stroke="white"/>
<path d="M0.5 302C0.5 329.271 16.0103 355.32 44.2118 379.077C72.411 402.833 113.246 424.248 163.749 442.243C264.751 478.231 404.316 500.5 558.5 500.5C712.684 500.5 852.249 478.231 953.251 442.243C1003.75 424.248 1044.59 402.833 1072.79 379.077C1100.99 355.32 1116.5 329.271 1116.5 302C1116.5 274.729 1100.99 248.68 1072.79 224.923C1044.59 201.167 1003.75 179.752 953.251 161.757C852.249 125.769 712.684 103.5 558.5 103.5C404.316 103.5 264.751 125.769 163.749 161.757C113.246 179.752 72.411 201.167 44.2118 224.923C16.0103 248.68 0.5 274.729 0.5 302Z" stroke="white"/>
<path d="M0.5 286C0.5 291.199 4.22864 296.393 11.6311 301.51C19.0142 306.614 29.9354 311.556 44.0482 316.276C72.2673 325.713 113.128 334.22 163.651 341.366C264.69 355.658 404.29 364.5 558.5 364.5C712.71 364.5 852.31 355.658 953.349 341.366C1003.87 334.22 1044.73 325.713 1072.95 316.276C1087.06 311.556 1097.99 306.614 1105.37 301.51C1112.77 296.393 1116.5 291.199 1116.5 286C1116.5 280.801 1112.77 275.607 1105.37 270.49C1097.99 265.386 1087.06 260.444 1072.95 255.724C1044.73 246.287 1003.87 237.78 953.349 230.634C852.31 216.342 712.71 207.5 558.5 207.5C404.29 207.5 264.69 216.342 163.651 230.634C113.128 237.78 72.2673 246.287 44.0482 255.724C29.9354 260.444 19.0142 265.386 11.6311 270.49C4.22864 275.607 0.5 280.801 0.5 286Z" stroke="white"/>
<path d="M91.1174 302C91.1174 385.168 143.345 460.531 227.928 515.126C312.506 569.718 429.379 603.5 558.5 603.5C687.62 603.5 804.494 569.718 889.072 515.126C973.655 460.531 1025.88 385.168 1025.88 302C1025.88 218.832 973.655 143.469 889.072 88.8738C804.494 34.2821 687.62 0.5 558.5 0.5C429.379 0.5 312.506 34.2821 227.928 88.8738C143.345 143.469 91.1174 218.832 91.1174 302Z" stroke="white"/>
<path d="M422.149 302C422.149 385.341 437.458 460.767 462.187 515.34C486.937 569.958 521.027 603.5 558.5 603.5C595.973 603.5 630.063 569.958 654.813 515.34C679.542 460.767 694.851 385.341 694.851 302C694.851 218.659 679.542 143.233 654.813 88.6601C630.063 34.0418 595.973 0.5 558.5 0.5C521.027 0.5 486.937 34.0418 462.187 88.6601C437.458 143.233 422.149 218.659 422.149 302Z" stroke="white"/>
</svg>
