<svg width="853" height="706" viewBox="0 0 853 706" fill="none" xmlns="http://www.w3.org/2000/svg">
<path d="M213.511 705.075C272.228 705.075 325.469 665.748 364.058 601.987C402.641 538.236 426.522 450.131 426.521 352.788C426.521 255.444 402.641 167.34 364.058 103.588C325.469 39.827 272.228 0.499988 213.511 0.499991C154.794 0.499993 101.552 39.827 62.9636 103.588C24.3804 167.34 0.500011 255.444 0.500015 352.788C0.50002 450.131 24.3805 538.236 62.9636 601.987C101.552 665.748 154.794 705.075 213.511 705.075Z" stroke="#1A2734"/>
<path d="M213.511 705.075C232.754 705.075 251.137 695.298 267.91 677.508C284.684 659.718 299.814 633.947 312.53 602.061C337.961 538.291 353.702 450.16 353.702 352.788C353.702 255.415 337.961 167.284 312.53 103.514C299.814 71.6281 284.684 45.8575 267.91 28.0668C251.137 10.277 232.754 0.499993 213.511 0.499994C194.268 0.499995 175.885 10.277 159.111 28.0668C142.337 45.8576 127.208 71.6281 114.492 103.514C89.0605 167.284 73.3198 255.415 73.3198 352.788C73.3198 450.16 89.0605 538.291 114.492 602.061C127.208 633.947 142.337 659.718 159.111 677.508C175.885 695.298 194.268 705.075 213.511 705.075Z" stroke="#1A2734"/>
<path d="M202.199 705.075C205.825 705.075 209.461 702.754 213.06 698.102C216.651 693.46 220.138 686.582 223.471 677.676C230.136 659.87 236.147 634.076 241.199 602.168C251.301 538.359 257.551 450.189 257.551 352.788C257.551 255.386 251.301 167.216 241.199 103.407C236.147 71.4988 230.136 45.7048 223.471 27.8991C220.138 18.9934 216.651 12.1156 213.06 7.47335C209.461 2.82157 205.825 0.499997 202.199 0.499998C198.573 0.499998 194.937 2.82157 191.338 7.47335C187.747 12.1156 184.261 18.9934 180.927 27.8991C174.262 45.7048 168.251 71.4988 163.199 103.407C153.097 167.216 146.847 255.386 146.847 352.788C146.847 450.189 153.097 538.359 163.2 602.168C168.251 634.076 174.262 659.87 180.927 677.676C184.261 686.582 187.747 693.46 191.338 698.102C194.937 702.754 198.573 705.075 202.199 705.075Z" stroke="#1A2734"/>
<path d="M213.511 647.835C272.269 647.835 325.51 614.868 364.08 561.478C402.65 508.089 426.522 434.307 426.521 352.788C426.521 271.268 402.65 197.486 364.08 144.097C325.51 90.7071 272.269 57.7405 213.511 57.7405C154.752 57.7405 101.511 90.7071 62.9412 144.097C24.3714 197.486 0.500009 271.268 0.500013 352.788C0.500016 434.307 24.3714 508.089 62.9412 561.478C101.511 614.868 154.752 647.835 213.511 647.835Z" stroke="#1A2734"/>
<path d="M213.511 438.732C272.422 438.732 325.733 429.063 364.298 413.45C383.582 405.642 399.154 396.358 409.897 386.074C420.639 375.792 426.521 364.543 426.521 352.787C426.521 341.031 420.639 329.783 409.897 319.5C399.154 309.217 383.582 299.933 364.298 292.125C325.733 276.511 272.422 266.843 213.511 266.843C154.599 266.843 101.288 276.511 62.7235 292.125C43.4398 299.933 27.8677 309.217 17.1245 319.5C6.38257 329.783 0.500003 341.031 0.500004 352.787C0.500004 364.543 6.38257 375.792 17.1245 386.074C27.8677 396.358 43.4398 405.642 62.7235 413.45C101.288 429.063 154.599 438.732 213.511 438.732Z" stroke="#1A2734"/>
<path d="M852.075 492.905C852.075 434.356 812.86 381.266 749.28 342.786C685.709 304.313 597.855 280.5 500.788 280.5C403.72 280.5 315.866 304.313 252.295 342.786C188.715 381.266 149.5 434.356 149.5 492.906C149.5 551.455 188.715 604.545 252.295 643.025C315.866 681.498 403.72 705.311 500.788 705.311C597.855 705.311 685.709 681.498 749.28 643.025C812.86 604.545 852.075 551.455 852.075 492.905Z" stroke="#FF7246"/>
<path d="M852.075 492.905C852.075 473.717 842.326 455.387 824.587 438.661C806.847 421.935 781.15 406.848 749.354 394.168C685.765 368.809 597.884 353.113 500.788 353.113C403.691 353.113 315.81 368.809 252.221 394.168C220.426 406.848 194.728 421.935 176.988 438.661C159.249 455.387 149.5 473.718 149.5 492.905C149.5 512.093 159.249 530.424 176.988 547.15C194.728 563.876 220.426 578.962 252.221 591.642C315.81 617.001 403.691 632.697 500.788 632.697C597.884 632.697 685.765 617.001 749.354 591.642C781.15 578.962 806.847 563.876 824.587 547.15C842.326 530.424 852.075 512.093 852.075 492.905Z" stroke="#FF7246"/>
<path d="M852.075 504.185C852.075 500.57 849.761 496.945 845.122 493.356C840.493 489.775 833.635 486.299 824.755 482.975C807 476.329 781.279 470.335 749.461 465.298C685.833 455.224 597.913 448.991 500.788 448.991C403.662 448.991 315.742 455.224 252.114 465.298C220.296 470.335 194.576 476.329 176.82 482.975C167.94 486.299 161.082 489.775 156.453 493.357C151.815 496.945 149.5 500.57 149.5 504.185C149.5 507.801 151.815 511.425 156.453 515.014C161.082 518.595 167.94 522.072 176.82 525.396C194.576 532.041 220.296 538.036 252.114 543.073C315.742 553.146 403.662 559.379 500.788 559.379C597.913 559.379 685.833 553.146 749.461 543.073C781.279 538.036 807 532.041 824.755 525.396C833.635 522.072 840.493 518.595 845.122 515.014C849.761 511.425 852.075 507.801 852.075 504.185Z" stroke="#FF7246"/>
<path d="M794.997 492.905C794.997 434.314 762.124 381.225 708.886 342.764C655.648 304.304 582.076 280.5 500.788 280.5C419.499 280.5 345.927 304.304 292.689 342.764C239.451 381.225 206.578 434.314 206.578 492.906C206.578 551.497 239.451 604.586 292.689 643.047C345.927 681.507 419.499 705.311 500.788 705.311C582.076 705.311 655.648 681.507 708.886 643.047C762.124 604.586 794.997 551.497 794.997 492.905Z" stroke="#FF7246"/>
<path d="M586.487 492.905C586.487 434.161 576.846 381.001 561.276 342.546C553.491 323.317 544.233 307.789 533.979 297.077C523.726 286.366 512.51 280.5 500.787 280.5C489.065 280.5 477.849 286.366 467.596 297.077C457.342 307.789 448.084 323.317 440.299 342.546C424.729 381.001 415.088 434.161 415.088 492.906C415.088 551.65 424.729 604.81 440.299 643.265C448.084 662.494 457.342 678.022 467.596 688.734C477.849 699.445 489.065 705.311 500.788 705.311C512.51 705.311 523.726 699.445 533.979 688.734C544.233 678.022 553.491 662.494 561.276 643.265C576.846 604.81 586.487 551.65 586.487 492.905Z" stroke="#FF7246"/>
</svg>
